<svg width="30" height="30" viewBox="0 0 30 30" fill="none" xmlns="http://www.w3.org/2000/svg">
<path d="M1.9043 0.363281C1.92188 0.568359 2.4668 6.63281 3.09961 13.8457C3.73828 21.0586 4.27734 26.9707 4.28906 26.9883C4.30664 27.0059 6.72656 27.6855 9.66211 28.5059L15 30L20.3379 28.5059C23.2734 27.6855 25.6934 27.0059 25.7051 26.9883C25.7227 26.9707 28.1074 0.363281 28.125 0.0117188C28.125 0.00585938 22.2188 0 14.9941 0H1.86328L1.9043 0.363281ZM23.291 5.75391C23.2734 5.89453 22.957 9.42188 22.5879 13.5938C21.75 22.998 21.8145 22.3301 21.7559 22.3828C21.7324 22.4062 20.1973 22.8398 18.3516 23.3496L14.9941 24.2695L11.6426 23.3496C9.79688 22.8398 8.26758 22.4062 8.24414 22.3828C8.20898 22.3477 7.74023 17.5488 7.73438 17.1504C7.73438 17.0566 7.85156 17.0508 9.375 17.0508C10.6406 17.0508 11.0273 17.0684 11.0449 17.1211C11.0566 17.1621 11.1211 17.7891 11.1855 18.5098C11.25 19.2305 11.3145 19.8281 11.3203 19.834C11.3672 19.8691 14.9004 20.8008 14.9883 20.8008C15.0762 20.8008 18.6328 19.8633 18.6797 19.8281C18.6914 19.8223 18.8027 18.873 18.9258 17.7129C19.0547 16.5586 19.166 15.5273 19.1836 15.4219L19.2129 15.2344H13.3945H7.57617L7.54102 15.0117C7.45312 14.4082 7.24805 12.1875 7.27734 12.1523C7.29492 12.1348 9.81445 12.0938 12.873 12.0645C15.9258 12.0352 18.668 11.9941 18.9609 11.9766L19.4883 11.9414L19.5938 10.4414C19.6465 9.61523 19.7109 8.85938 19.7285 8.76562L19.7578 8.60156L13.3359 8.625L6.91992 8.64258L6.89062 8.34961C6.87305 8.19141 6.83203 7.60547 6.79688 7.06055C6.76172 6.50977 6.7207 5.94141 6.70312 5.7832L6.66797 5.50781H15H23.3262L23.291 5.75391Z" fill="#E0E0E0"/>
</svg>
