<svg width="24" height="25" viewBox="0 0 24 25" fill="none" xmlns="http://www.w3.org/2000/svg">
<g clip-path="url(#clip0_2_827)">
<path d="M17.5 4.59863C15.55 4.59863 13.45 5.0074 12 6.13151C10.55 5.0074 8.45 4.59863 6.5 4.59863C5.05 4.59863 3.51 4.82346 2.22 5.40595C1.49 5.74318 1 6.46875 1 7.2965V18.8238C1 20.1523 2.22 21.1333 3.48 20.8063C4.46 20.5508 5.5 20.4384 6.5 20.4384C8.06 20.4384 9.72 20.7041 11.06 21.3786C11.66 21.6851 12.34 21.6851 12.93 21.3786C14.27 20.6939 15.93 20.4384 17.49 20.4384C18.49 20.4384 19.53 20.5508 20.51 20.8063C21.77 21.1435 22.99 20.1625 22.99 18.8238V7.2965C22.99 6.46875 22.5 5.74318 21.77 5.40595C20.49 4.82346 18.95 4.59863 17.5 4.59863ZM21 17.6077C21 18.2515 20.42 18.7216 19.8 18.6092C19.05 18.4661 18.27 18.4048 17.5 18.4048C15.8 18.4048 13.35 19.069 12 19.9377V8.17536C13.35 7.30672 15.8 6.64247 17.5 6.64247C18.42 6.64247 19.33 6.73445 20.2 6.92861C20.66 7.0308 21 7.44979 21 7.93009V17.6077Z" fill="url(#paint0_linear_2_827)"/>
<path d="M13.98 11.2515C13.66 11.2515 13.37 11.0471 13.27 10.7201C13.14 10.3215 13.36 9.88208 13.75 9.75945C15.29 9.24849 17.28 9.08498 19.11 9.29958C19.52 9.35068 19.82 9.72879 19.77 10.1478C19.72 10.5668 19.35 10.8733 18.94 10.8222C17.32 10.6281 15.55 10.7814 14.21 11.2208C14.13 11.231 14.05 11.2515 13.98 11.2515Z" fill="url(#paint1_linear_2_827)"/>
<path d="M13.98 13.9697C13.66 13.9697 13.37 13.7653 13.27 13.4383C13.14 13.0398 13.36 12.6003 13.75 12.4777C15.28 11.9667 17.28 11.8032 19.11 12.0178C19.52 12.0689 19.82 12.4471 19.77 12.866C19.72 13.285 19.35 13.5916 18.94 13.5405C17.32 13.3463 15.55 13.4996 14.21 13.9391C14.13 13.9595 14.05 13.9697 13.98 13.9697Z" fill="url(#paint2_linear_2_827)"/>
<path d="M13.98 16.688C13.66 16.688 13.37 16.4836 13.27 16.1566C13.14 15.758 13.36 15.3186 13.75 15.196C15.28 14.685 17.28 14.5215 19.11 14.7361C19.52 14.7872 19.82 15.1653 19.77 15.5843C19.72 16.0033 19.35 16.2996 18.94 16.2588C17.32 16.0646 15.55 16.2179 14.21 16.6573C14.13 16.6778 14.05 16.688 13.98 16.688Z" fill="url(#paint3_linear_2_827)"/>
</g>
<defs>
<linearGradient id="paint0_linear_2_827" x1="11.995" y1="21.6085" x2="11.995" y2="4.59863" gradientUnits="userSpaceOnUse">
<stop offset="0.259615" stop-color="#DA1C1F"/>
<stop offset="0.677885" stop-color="#FF3947"/>
</linearGradient>
<linearGradient id="paint1_linear_2_827" x1="16.504" y1="11.2515" x2="16.504" y2="9.20752" gradientUnits="userSpaceOnUse">
<stop offset="0.259615" stop-color="#DA1C1F"/>
<stop offset="0.677885" stop-color="#FF3947"/>
</linearGradient>
<linearGradient id="paint2_linear_2_827" x1="16.504" y1="13.9697" x2="16.504" y2="11.9258" gradientUnits="userSpaceOnUse">
<stop offset="0.259615" stop-color="#DA1C1F"/>
<stop offset="0.677885" stop-color="#FF3947"/>
</linearGradient>
<linearGradient id="paint3_linear_2_827" x1="16.504" y1="16.688" x2="16.504" y2="14.644" gradientUnits="userSpaceOnUse">
<stop offset="0.259615" stop-color="#DA1C1F"/>
<stop offset="0.677885" stop-color="#FF3947"/>
</linearGradient>
<clipPath id="clip0_2_827">
<rect width="24" height="24.5261" fill="white"/>
</clipPath>
</defs>
</svg>
