<svg width="30" height="30" viewBox="0 0 30 30" fill="none" xmlns="http://www.w3.org/2000/svg">
<path d="M19.6875 10.3125C20.9307 10.3125 22.123 9.81864 23.0021 8.93956C23.8811 8.06049 24.375 6.8682 24.375 5.625C24.375 4.3818 23.8811 3.18951 23.0021 2.31044C22.123 1.43136 20.9307 0.9375 19.6875 0.9375H10.3125C9.0693 0.9375 7.87702 1.43136 6.99794 2.31044C6.11886 3.18951 5.625 4.3818 5.625 5.625C5.625 6.8682 6.11886 8.06049 6.99794 8.93956C7.87702 9.81864 9.0693 10.3125 10.3125 10.3125C9.0693 10.3125 7.87702 10.8064 6.99794 11.6854C6.11886 12.5645 5.625 13.7568 5.625 15C5.625 16.2432 6.11886 17.4355 6.99794 18.3146C7.87702 19.1936 9.0693 19.6875 10.3125 19.6875C9.3854 19.6875 8.47912 19.9624 7.70827 20.4775C6.93741 20.9926 6.3366 21.7246 5.98182 22.5812C5.62703 23.4377 5.5342 24.3802 5.71507 25.2895C5.89594 26.1988 6.34238 27.034 6.99794 27.6896C7.6535 28.3451 8.48873 28.7916 9.39802 28.9724C10.3073 29.1533 11.2498 29.0605 12.1063 28.7057C12.9629 28.3509 13.6949 27.7501 14.21 26.9792C14.7251 26.2084 15 25.3021 15 24.375V10.3125H19.6875Z" fill="#E0E0E0"/>
<path d="M19.6875 19.6875C22.2763 19.6875 24.375 17.5888 24.375 15C24.375 12.4112 22.2763 10.3125 19.6875 10.3125C17.0987 10.3125 15 12.4112 15 15C15 17.5888 17.0987 19.6875 19.6875 19.6875Z" fill="#E0E0E0"/>
</svg>
