<svg width="30" height="30" viewBox="0 0 30 30" fill="none" xmlns="http://www.w3.org/2000/svg">
<g clip-path="url(#clip0_2_721)">
<path d="M13.9688 0.351545C8.03908 0.755842 2.88869 4.67576 0.873062 10.3301C0.562515 11.1855 0.275406 12.375 0.14064 13.3301C0.00587459 14.25 -0.00584416 16.2363 0.111343 17.168C0.709 21.9492 3.48048 26.1094 7.65236 28.4883C8.6133 29.039 10.1016 29.6601 10.4824 29.6719C10.7813 29.6777 11.0332 29.5547 11.1621 29.3379C11.2676 29.1621 11.2735 29.0449 11.2559 27.7734C11.25 27.0176 11.2383 26.3906 11.2324 26.3906C11.2266 26.3847 11.0098 26.414 10.752 26.4609C9.21095 26.7129 7.83986 26.3672 6.96681 25.4941C6.62697 25.1543 6.5215 24.9902 6.18166 24.2871C5.63087 23.1387 5.30861 22.6992 4.68752 22.248C4.23048 21.9199 3.98439 21.6738 3.98439 21.5508C3.98439 21.2578 4.69337 21.1582 5.25587 21.375C5.9883 21.6504 6.47462 22.0722 7.00783 22.8867C7.74611 24.0058 8.67189 24.5039 9.84962 24.416C10.3008 24.3808 11.2149 24.1289 11.2852 24.0176C11.3027 23.9824 11.3613 23.7949 11.4024 23.6015C11.5137 23.1328 11.8008 22.541 12.0469 22.2656C12.2813 22.0019 12.3047 22.0195 11.543 21.914C10.9395 21.832 9.89064 21.5625 9.38673 21.3633C7.26564 20.5254 6.04103 18.9609 5.584 16.5058C5.43752 15.7207 5.43752 13.793 5.584 13.1836C5.79494 12.3105 6.18752 11.5137 6.72658 10.8515L6.97853 10.541L6.89064 10.2656C6.58595 9.32225 6.62111 8.09764 6.98439 6.96092C7.10158 6.6035 7.12502 6.56834 7.3008 6.53319C7.92775 6.416 9.3633 6.93162 10.6758 7.74022L11.25 8.09764L11.7598 7.98045C12.9551 7.70506 13.5059 7.64647 15 7.64647C16.5 7.64647 17.0449 7.70506 18.2402 7.98045L18.7559 8.09764L19.207 7.81639C20.1035 7.25389 20.9883 6.83787 21.5918 6.68553C22.0899 6.56248 22.5235 6.50389 22.711 6.53905C22.875 6.56834 22.9043 6.60936 23.0156 6.96092C23.3496 8.00389 23.4082 9.32811 23.1504 10.1367L23.0274 10.5176L23.1445 10.664C23.7188 11.373 24.1699 12.2402 24.3867 13.0605C24.5391 13.6347 24.5977 15.0996 24.4981 15.9199C24.0645 19.4824 22.1133 21.3984 18.3985 21.914C17.6953 22.0078 17.707 22.0019 17.9121 22.2246C18.1817 22.5058 18.4395 23.0097 18.586 23.5312C18.7031 23.9648 18.7149 24.1523 18.7442 26.6308C18.7852 29.5137 18.7735 29.4551 19.1309 29.6015C19.4063 29.7187 19.7285 29.6777 20.3027 29.4492C22.3418 28.6582 23.9473 27.6269 25.4824 26.1152C27.9258 23.7129 29.461 20.5957 29.8887 17.168C30.0059 16.2363 29.9942 14.25 29.8594 13.3301C28.8457 6.18748 23.1152 0.843733 15.9551 0.351545C15.0117 0.287092 14.9297 0.287092 13.9688 0.351545Z" fill="#E0E0E0"/>
</g>
<defs>
<clipPath id="clip0_2_721">
<rect width="30" height="30" fill="white"/>
</clipPath>
</defs>
</svg>
