<svg width="30" height="30" viewBox="0 0 30 30" fill="none" xmlns="http://www.w3.org/2000/svg">
<path d="M1.75781 0.0117188C1.79883 0.960938 3.63867 26.2207 3.67383 26.25C3.69727 26.2734 6.26367 27.123 9.375 28.1484L15.0293 30L20.6836 28.1367C25.8809 26.4199 26.3438 26.2617 26.3789 26.127C26.4141 26.0215 28.2539 0.269531 28.2422 0.0410156C28.2422 0.0175781 22.2832 0 15 0C7.7168 0 1.75781 0.00585938 1.75781 0.0117188ZM23.5254 4.55273C23.5137 4.64648 23.4551 5.37305 23.4082 6.18164C23.3555 6.98438 23.3027 7.70508 23.2852 7.77539L23.2617 7.91016H16.752H10.2363L10.2715 8.18555C10.2891 8.34375 10.3652 9.35742 10.4414 10.4414L10.5703 12.4219H16.7695C20.1797 12.4219 22.9688 12.4277 22.9688 12.4336C22.9629 12.6445 22.207 22.9863 22.1953 22.998C22.1836 23.0039 20.5723 23.5547 18.6094 24.2109L15.041 25.4121L11.4316 24.2109C9.44531 23.5488 7.81641 23.0098 7.81055 23.0039C7.79883 22.998 7.55859 19.6641 7.55859 19.5234C7.55859 19.4707 7.96289 19.4531 9.31055 19.4531H11.0625L11.1035 19.9395L11.1445 20.4258L13.0723 21.0645L15 21.709L16.9219 21.0703C17.9766 20.7188 18.8438 20.4258 18.8555 20.4199C18.8789 20.3965 19.1602 16.5117 19.1602 16.1836V15.9375H13.2129H7.26562V15.7617C7.26562 15.668 7.0957 13.1484 6.88477 10.166C6.67383 7.18359 6.50391 4.66406 6.50391 4.56445V4.39453H15.0293H23.5547L23.5254 4.55273Z" fill="#E0E0E0"/>
</svg>
