<svg width="30" height="30" viewBox="0 0 30 30" fill="none" xmlns="http://www.w3.org/2000/svg">
<g clip-path="url(#clip0_2_713)">
<path fill-rule="evenodd" clip-rule="evenodd" d="M0 0H30V30H0V0ZM22.9334 25.1495C21.5429 25.1495 20.7566 24.4242 20.1524 23.4376L17.8614 24.7686C18.689 26.4037 20.3805 27.6514 22.9986 27.6514C25.6761 27.6514 27.67 26.261 27.67 23.7229C27.67 21.3686 26.3176 20.3214 23.9224 19.2943L23.2176 18.9924C22.0081 18.4686 21.4843 18.1262 21.4843 17.2805C21.4843 16.5963 22.0076 16.0724 22.8334 16.0724C23.6429 16.0724 24.1642 16.4137 24.6476 17.2805L26.8429 15.871C25.9143 14.2376 24.6258 13.6137 22.8334 13.6137C20.3158 13.6137 18.7048 15.2234 18.7048 17.3376C18.7048 19.6329 20.0561 20.7186 22.0905 21.5853L22.7952 21.8876C24.081 22.45 24.8476 22.7924 24.8476 23.759C24.8476 24.5658 24.1014 25.1495 22.9334 25.1495ZM12.0081 25.1319C11.0395 25.1319 10.6367 24.4676 10.1938 23.6819L7.89904 25.0712C8.5638 26.4781 9.87095 27.6463 12.1281 27.6463C14.6261 27.6463 16.3376 26.3176 16.3376 23.3986V13.7747H13.5186V23.3605C13.5186 24.7695 12.9342 25.1319 12.0081 25.1319Z" fill="#E0E0E0"/>
</g>
<defs>
<clipPath id="clip0_2_713">
<rect width="30" height="30" fill="white"/>
</clipPath>
</defs>
</svg>
