<svg width="321" height="60" viewBox="0 0 321 60" fill="none" xmlns="http://www.w3.org/2000/svg">
<path d="M32.68 14.56V11.92H48.52C51.272 11.92 53.768 12.304 56.008 13.072C58.28 13.84 60.248 14.96 61.912 16.432C63.576 17.872 64.856 19.648 65.752 21.76C66.648 23.84 67.096 26.208 67.096 28.864C67.096 31.52 66.648 33.904 65.752 36.016C64.856 38.096 63.576 39.888 61.912 41.392C60.248 42.896 58.28 44.048 56.008 44.848C53.768 45.616 51.272 46 48.52 46H32.68V43.36H33.16C34.088 43.36 34.856 43.248 35.464 43.024C36.072 42.8 36.376 42.336 36.376 41.632V16.288C36.376 15.648 36.072 15.2 35.464 14.944C34.856 14.688 34.088 14.56 33.16 14.56H32.68ZM48.328 15.088H44.056V42.832H48.328C49.96 42.832 51.432 42.528 52.744 41.92C54.056 41.312 55.176 40.416 56.104 39.232C57.032 38.016 57.752 36.544 58.264 34.816C58.776 33.088 59.032 31.104 59.032 28.864C59.032 26.624 58.776 24.656 58.264 22.96C57.752 21.232 57.032 19.792 56.104 18.64C55.176 17.456 54.056 16.576 52.744 16C51.432 15.392 49.96 15.088 48.328 15.088ZM78.274 33.856C78.274 35.36 78.434 36.704 78.754 37.888C79.074 39.072 79.538 40.064 80.146 40.864C80.754 41.664 81.49 42.272 82.354 42.688C83.25 43.072 84.258 43.264 85.378 43.264C86.594 43.264 87.634 43.04 88.498 42.592C89.394 42.112 90.162 41.52 90.802 40.816C91.442 40.08 91.986 39.328 92.434 38.56L94.978 40.48C94.338 41.632 93.538 42.672 92.578 43.6C91.618 44.496 90.466 45.2 89.122 45.712C87.81 46.224 86.242 46.48 84.418 46.48C81.762 46.48 79.426 45.968 77.41 44.944C75.394 43.92 73.81 42.464 72.658 40.576C71.538 38.656 70.978 36.384 70.978 33.76C70.978 31.2 71.522 28.96 72.61 27.04C73.698 25.12 75.202 23.616 77.122 22.528C79.042 21.44 81.186 20.896 83.554 20.896C85.474 20.896 87.154 21.2 88.594 21.808C90.034 22.384 91.25 23.248 92.242 24.4C93.266 25.52 94.034 26.944 94.546 28.672C95.058 30.4 95.314 32.4 95.314 34.672H76.882V31.744H89.554L88.402 32.896C88.37 31.264 88.258 29.888 88.066 28.768C87.874 27.616 87.586 26.704 87.202 26.032C86.818 25.328 86.322 24.816 85.714 24.496C85.138 24.176 84.466 24.016 83.698 24.016C82.898 24.016 82.162 24.224 81.49 24.64C80.85 25.024 80.29 25.632 79.81 26.464C79.33 27.264 78.946 28.272 78.658 29.488C78.402 30.704 78.274 32.16 78.274 33.856ZM117.855 24.88C117.855 24.688 117.679 24.512 117.327 24.352C117.007 24.192 116.607 24.08 116.127 24.016C115.647 23.92 115.135 23.872 114.591 23.872H114.495V21.376H123.711V23.872H123.663C123.247 23.872 122.847 23.936 122.463 24.064C122.111 24.192 121.791 24.4 121.503 24.688C121.215 24.976 120.975 25.392 120.783 25.936L113.487 46H106.767L99.2785 25.504C99.1185 25.056 98.9105 24.72 98.6545 24.496C98.3985 24.272 98.0945 24.112 97.7425 24.016C97.3905 23.92 96.9585 23.872 96.4465 23.872H96.3985V21.376H109.743V23.872H109.647C109.103 23.872 108.559 23.888 108.015 23.92C107.503 23.952 107.071 24 106.719 24.064C106.367 24.096 106.191 24.176 106.191 24.304L112.671 42.592L111.663 42.304L117.855 24.88ZM155.011 14.8C153.635 14.8 152.371 15.136 151.219 15.808C150.099 16.448 149.123 17.392 148.291 18.64C147.491 19.856 146.867 21.344 146.419 23.104C146.003 24.832 145.795 26.784 145.795 28.96C145.795 31.2 146.003 33.2 146.419 34.96C146.867 36.688 147.507 38.16 148.339 39.376C149.171 40.592 150.195 41.52 151.411 42.16C152.627 42.8 154.003 43.12 155.539 43.12C157.235 43.12 158.723 42.72 160.003 41.92C161.315 41.088 162.403 39.952 163.267 38.512C164.163 37.072 164.819 35.424 165.235 33.568L168.259 34.768C167.747 37.072 166.899 39.104 165.715 40.864C164.531 42.624 163.011 44 161.155 44.992C159.299 45.984 157.123 46.48 154.627 46.48C152.163 46.48 149.891 46.064 147.811 45.232C145.763 44.368 143.987 43.168 142.483 41.632C140.979 40.064 139.811 38.208 138.979 36.064C138.147 33.92 137.731 31.552 137.731 28.96C137.731 26.368 138.147 24 138.979 21.856C139.843 19.712 141.027 17.872 142.531 16.336C144.067 14.768 145.811 13.568 147.763 12.736C149.747 11.872 151.875 11.44 154.147 11.44C156.355 11.44 158.227 11.808 159.763 12.544C161.299 13.248 162.547 14.24 163.507 15.52C164.467 16.8 165.203 18.288 165.715 19.984L163.555 19.552L164.419 11.92H167.635V22.432H163.987C163.507 20.896 162.867 19.568 162.067 18.448C161.267 17.296 160.291 16.4 159.139 15.76C158.019 15.12 156.643 14.8 155.011 14.8ZM187.748 31.216L187.7 33.76C186.452 33.888 185.332 34.08 184.34 34.336C183.348 34.56 182.484 34.848 181.748 35.2C181.012 35.52 180.404 35.904 179.924 36.352C179.476 36.8 179.124 37.312 178.868 37.888C178.644 38.432 178.532 39.04 178.532 39.712C178.532 40.48 178.66 41.136 178.916 41.68C179.204 42.192 179.604 42.592 180.116 42.88C180.66 43.168 181.268 43.312 181.94 43.312C182.804 43.312 183.572 43.088 184.244 42.64C184.948 42.192 185.572 41.568 186.116 40.768C186.66 39.968 187.14 39.024 187.556 37.936L187.748 40.816C187.3 42 186.692 43.024 185.924 43.888C185.156 44.72 184.228 45.36 183.14 45.808C182.084 46.256 180.868 46.48 179.492 46.48C177.924 46.48 176.548 46.24 175.364 45.76C174.212 45.248 173.3 44.512 172.628 43.552C171.956 42.56 171.62 41.36 171.62 39.952C171.62 38.64 171.956 37.504 172.628 36.544C173.332 35.552 174.356 34.72 175.7 34.048C177.076 33.376 178.756 32.816 180.74 32.368C182.756 31.888 185.092 31.504 187.748 31.216ZM187.076 46V41.2H186.548V28.336C186.548 27.28 186.404 26.432 186.116 25.792C185.828 25.152 185.38 24.688 184.772 24.4C184.196 24.112 183.476 23.968 182.612 23.968C181.3 23.968 180.212 24.24 179.348 24.784C178.516 25.328 177.86 26 177.38 26.8C177.22 26.416 177.14 26.08 177.14 25.792C177.172 25.472 177.268 25.184 177.428 24.928C177.588 24.672 177.812 24.448 178.1 24.256C178.42 24.064 178.772 23.92 179.156 23.824V29.056H173.252V23.968C173.732 23.616 174.42 23.2 175.316 22.72C176.212 22.24 177.332 21.824 178.676 21.472C180.02 21.088 181.572 20.896 183.332 20.896C184.804 20.896 186.164 21.056 187.412 21.376C188.66 21.696 189.748 22.176 190.676 22.816C191.636 23.456 192.372 24.304 192.884 25.36C193.396 26.384 193.652 27.648 193.652 29.152V41.872C193.652 42.256 193.764 42.56 193.988 42.784C194.244 42.976 194.58 43.12 194.996 43.216C195.444 43.312 195.956 43.376 196.532 43.408L196.676 43.456V46H187.076ZM217.234 21.232V27.568C217.01 27.504 216.738 27.44 216.418 27.376C216.098 27.312 215.762 27.264 215.41 27.232C215.09 27.2 214.77 27.184 214.45 27.184C213.682 27.184 212.978 27.28 212.338 27.472C211.73 27.632 211.154 27.888 210.61 28.24C210.098 28.592 209.634 29.056 209.218 29.632C208.802 30.208 208.402 30.896 208.018 31.696L207.97 29.056C208.45 27.488 209.01 26.112 209.65 24.928C210.322 23.712 211.122 22.768 212.05 22.096C213.01 21.392 214.162 21.04 215.506 21.04C215.89 21.04 216.226 21.056 216.514 21.088C216.834 21.12 217.074 21.168 217.234 21.232ZM198.658 46V43.504H198.706C199.57 43.504 200.274 43.408 200.818 43.216C201.394 42.992 201.682 42.576 201.682 41.968V25.84C201.682 25.456 201.586 25.168 201.394 24.976C201.202 24.752 200.914 24.576 200.53 24.448C200.146 24.32 199.666 24.192 199.09 24.064L198.658 23.968V21.376H208.45V28.912L208.93 28.432V42.496C208.93 42.784 209.106 43.008 209.458 43.168C209.842 43.296 210.29 43.392 210.802 43.456C211.346 43.488 211.826 43.504 212.242 43.504H212.866V46H198.658ZM229.787 10.576V41.968C229.787 42.576 230.075 42.992 230.651 43.216C231.227 43.408 231.931 43.504 232.763 43.504H232.859V46H219.515V43.504H219.563C220.427 43.504 221.131 43.408 221.675 43.216C222.251 42.992 222.539 42.576 222.539 41.968V15.04C222.539 14.624 222.443 14.32 222.251 14.128C222.091 13.904 221.819 13.728 221.435 13.6C221.051 13.472 220.555 13.344 219.947 13.216L219.467 13.12V10.576H229.787ZM262.345 33.712C262.345 36.208 261.785 38.432 260.665 40.384C259.545 42.304 257.977 43.808 255.961 44.896C253.945 45.952 251.577 46.48 248.857 46.48C246.169 46.48 243.801 45.952 241.753 44.896C239.737 43.808 238.169 42.304 237.049 40.384C235.929 38.432 235.369 36.208 235.369 33.712C235.369 31.824 235.673 30.096 236.281 28.528C236.921 26.96 237.833 25.616 239.017 24.496C240.233 23.344 241.657 22.464 243.289 21.856C244.953 21.216 246.809 20.896 248.857 20.896C250.873 20.896 252.697 21.216 254.329 21.856C255.993 22.464 257.417 23.344 258.601 24.496C259.817 25.616 260.745 26.96 261.385 28.528C262.025 30.096 262.345 31.824 262.345 33.712ZM242.857 33.712C242.857 35.76 243.097 37.52 243.577 38.992C244.057 40.464 244.729 41.568 245.593 42.304C246.489 43.04 247.577 43.408 248.857 43.408C250.137 43.408 251.209 43.04 252.073 42.304C252.969 41.568 253.657 40.48 254.137 39.04C254.617 37.568 254.857 35.792 254.857 33.712C254.857 31.6 254.617 29.824 254.137 28.384C253.657 26.944 252.969 25.856 252.073 25.12C251.209 24.384 250.137 24.016 248.857 24.016C247.577 24.016 246.489 24.4 245.593 25.168C244.729 25.904 244.057 26.992 243.577 28.432C243.097 29.84 242.857 31.6 242.857 33.712ZM280.384 40.048C280.384 39.44 280.224 38.944 279.904 38.56C279.616 38.176 279.184 37.856 278.608 37.6C278.064 37.312 277.424 37.072 276.688 36.88C275.984 36.656 275.232 36.432 274.432 36.208C273.44 35.952 272.448 35.664 271.456 35.344C270.496 34.992 269.6 34.544 268.768 34C267.968 33.424 267.312 32.688 266.8 31.792C266.32 30.896 266.08 29.776 266.08 28.432C266.08 26.832 266.496 25.472 267.328 24.352C268.192 23.232 269.376 22.368 270.88 21.76C272.416 21.152 274.208 20.848 276.256 20.848C277.92 20.848 279.36 20.976 280.576 21.232C281.792 21.488 282.784 21.792 283.552 22.144C284.352 22.496 284.912 22.8 285.232 23.056V28H279.904V23.584C280.32 23.584 280.64 23.648 280.864 23.776C281.12 23.904 281.28 24.08 281.344 24.304C281.44 24.528 281.472 24.784 281.44 25.072C281.44 25.328 281.392 25.568 281.296 25.792C280.944 25.376 280.512 25.024 280 24.736C279.52 24.416 278.976 24.192 278.368 24.064C277.76 23.904 277.072 23.824 276.304 23.824C274.928 23.824 273.888 24.112 273.184 24.688C272.48 25.264 272.128 26.016 272.128 26.944C272.128 27.552 272.288 28.064 272.608 28.48C272.96 28.896 273.424 29.248 274 29.536C274.608 29.824 275.28 30.08 276.016 30.304C276.784 30.496 277.584 30.704 278.416 30.928C279.408 31.184 280.4 31.488 281.392 31.84C282.384 32.192 283.28 32.64 284.08 33.184C284.912 33.728 285.568 34.432 286.048 35.296C286.56 36.128 286.816 37.184 286.816 38.464C286.816 40.096 286.384 41.52 285.52 42.736C284.656 43.92 283.392 44.848 281.728 45.52C280.096 46.16 278.08 46.48 275.68 46.48C274.016 46.48 272.512 46.336 271.168 46.048C269.824 45.792 268.656 45.472 267.664 45.088C266.704 44.672 265.92 44.272 265.312 43.888V38.512H270.736V44.224C270.256 43.968 269.872 43.696 269.584 43.408C269.328 43.12 269.152 42.832 269.056 42.544C268.96 42.256 268.944 42 269.008 41.776C269.104 41.52 269.248 41.312 269.44 41.152C269.888 41.696 270.416 42.144 271.024 42.496C271.664 42.816 272.368 43.072 273.136 43.264C273.904 43.424 274.752 43.504 275.68 43.504C276.672 43.504 277.504 43.376 278.176 43.12C278.88 42.832 279.424 42.432 279.808 41.92C280.192 41.408 280.384 40.784 280.384 40.048Z" fill="#141414"/>
<rect width="6.37956" height="19.3813" transform="matrix(0.648015 -0.761627 0.645536 0.76373 0 30.1979)" fill="url(#paint0_linear_23_3)"/>
<rect width="6.31597" height="19.8554" transform="matrix(-0.643498 -0.765448 0.650048 -0.759893 4.09293 34.9225)" fill="url(#paint1_linear_23_3)"/>
<rect width="6.37956" height="19.3813" transform="matrix(-0.648015 0.761627 -0.645536 -0.76373 321 30.8021)" fill="url(#paint2_linear_23_3)"/>
<rect width="6.31597" height="19.8554" transform="matrix(0.643498 0.765448 -0.650048 0.759893 316.907 26.0774)" fill="url(#paint3_linear_23_3)"/>
<defs>
<linearGradient id="paint0_linear_23_3" x1="3.18978" y1="19.3813" x2="3.18978" y2="0" gradientUnits="userSpaceOnUse">
<stop offset="0.259615" stop-color="#DA1C1F"/>
<stop offset="0.677885" stop-color="#FF3947"/>
</linearGradient>
<linearGradient id="paint1_linear_23_3" x1="3.15798" y1="19.8554" x2="3.15798" y2="0" gradientUnits="userSpaceOnUse">
<stop offset="0.259615" stop-color="#DA1C1F"/>
<stop offset="0.677885" stop-color="#FF3947"/>
</linearGradient>
<linearGradient id="paint2_linear_23_3" x1="3.18978" y1="19.3813" x2="3.18978" y2="0" gradientUnits="userSpaceOnUse">
<stop offset="0.259615" stop-color="#DA1C1F"/>
<stop offset="0.677885" stop-color="#FF3947"/>
</linearGradient>
<linearGradient id="paint3_linear_23_3" x1="3.15798" y1="19.8554" x2="3.15798" y2="0" gradientUnits="userSpaceOnUse">
<stop offset="0.259615" stop-color="#DA1C1F"/>
<stop offset="0.677885" stop-color="#FF3947"/>
</linearGradient>
</defs>
</svg>
