<svg width="60" height="35" viewBox="0 0 60 35" fill="none" xmlns="http://www.w3.org/2000/svg">
<path d="M29.3203 1.73048C26.7891 1.90062 24.1313 2.84368 22.0313 4.31659C19.8141 5.87215 18.0563 7.97215 16.9172 10.4221C16.2938 11.7638 15.9047 13.0277 15.6375 14.5833C15.4359 15.7499 15.3938 17.5096 15.5344 18.861C15.7219 20.6791 16.3641 22.8569 17.2313 24.636L17.4797 25.1367L16.9031 26.9208C16.5844 27.9027 16.0078 29.6916 15.6188 30.8972C15.225 32.1076 14.9062 33.1284 14.9062 33.177C14.9062 33.2208 14.9672 33.284 15.0422 33.3131C15.1641 33.3617 15.1781 33.3812 15.1547 33.5319C15.1266 33.6874 15.1313 33.6972 15.2391 33.6631C15.4313 33.5999 19.6266 32.2145 21.3984 31.6215C22.3266 31.3152 23.1234 31.0624 23.1703 31.0624C23.2125 31.0624 23.4141 31.1451 23.6156 31.252C25.3313 32.1465 27.1594 32.6812 29.1047 32.8659C29.8734 32.934 31.4391 32.8999 32.1938 32.7881C36.6656 32.1465 40.4719 29.5847 42.8156 25.652C43.5797 24.3687 44.3063 22.5798 44.6953 21.0242C45.0656 19.5319 45.2438 17.6798 45.1453 16.2506C44.8922 12.4541 43.4766 9.09021 41.0156 6.44576C38.6297 3.88396 35.5922 2.29923 32.1328 1.81798C31.6266 1.74993 29.8734 1.69159 29.3203 1.73048ZM31.1531 5.05548C32.8266 5.19646 34.2 5.58048 35.6484 6.31451C37.6125 7.3159 39.2578 8.81312 40.4766 10.7187C41.4141 12.1819 41.9906 13.7569 42.2156 15.4777C42.3234 16.2944 42.3234 17.9472 42.2156 18.7833C41.4516 24.6603 36.7734 29.1909 31.0969 29.5603C29.0953 29.6867 27.2344 29.3465 25.4156 28.5201C24.9141 28.2916 24.0844 27.8249 23.8266 27.6305C23.7469 27.5673 23.6438 27.5138 23.5969 27.5138C23.5547 27.5138 22.5563 27.8298 21.3844 28.2187C20.2125 28.6076 19.2469 28.9235 19.2422 28.9138C19.2328 28.9041 19.5328 27.9562 19.9031 26.809C20.2734 25.6569 20.5781 24.6603 20.5781 24.5826C20.5781 24.5048 20.4938 24.3249 20.3719 24.1451C18.4125 21.2333 17.775 17.2131 18.7266 13.8055C18.9375 13.0666 19.1109 12.6145 19.4531 11.9097C20.3906 10.009 21.8203 8.35132 23.5781 7.13604C25.7953 5.59993 28.5656 4.84159 31.1531 5.05548Z" fill="#A3A3A3"/>
<path d="M24.9516 9.54709C24.8437 9.58112 24.6891 9.65889 24.6 9.71237C24.3609 9.86792 23.6672 10.636 23.4516 10.986C22.7625 12.0992 22.6078 13.5818 23.0203 15.0304C23.3344 16.1242 23.7187 16.9603 24.4219 18.0881C25.3125 19.5075 25.8891 20.2756 26.8125 21.2624C28.2 22.745 29.3672 23.5763 31.1578 24.3492C32.4797 24.9228 33.4547 25.2485 34.0031 25.3068C34.3828 25.3457 35.2125 25.2096 35.7 25.0249C36.375 24.7721 37.1484 24.2082 37.4484 23.7513C37.7484 23.2846 38.0578 22.2297 38.0953 21.5297L38.1234 21.0679L37.9781 20.8929C37.875 20.7763 37.4531 20.5138 36.6 20.0374C34.575 18.9096 34.3172 18.8026 33.9984 18.9776C33.9187 19.0165 33.6187 19.3325 33.3375 19.6728C32.5031 20.679 32.3297 20.854 32.1891 20.854C32.0109 20.854 30.8437 20.2367 30.3 19.8575C29.6672 19.4103 29.2547 19.0506 28.7344 18.4915C28.1156 17.8256 27.4453 16.8728 27.0703 16.129L26.9859 15.954L27.3234 15.57C27.7687 15.079 27.9516 14.7825 28.1297 14.2672C28.3125 13.7422 28.3031 13.5818 28.0359 12.8575C27.7969 12.211 27.6047 11.6763 27.2719 10.7478C27 9.98459 26.7984 9.67348 26.5172 9.58112C26.25 9.49848 25.1719 9.47417 24.9516 9.54709Z" fill="#A3A3A3"/>
</svg>
